<?xml version="1.0" encoding="UTF-8"?>
<svg id="Layer_2" data-name="Layer 2" xmlns="http://www.w3.org/2000/svg" viewBox="0 0 1193.71 1010.26">
  <defs>
    <style>
      .cls-1, .cls-2 {
        stroke-width: 0px;
      }

      .cls-2 {
        fill: #ed1a2f;
      }
    </style>
  </defs>
  <path class="cls-2" d="M251.64,304.33c1.22,1.14,1.62,3.17,2.37,4.8,65.72,142.22,131.43,284.46,197.17,426.67,14.44,31.23,29.01,62.39,45.14,97.06,3.07-8.33,4.74-12.57,6.2-16.87,19.62-57.73,38.35-115.79,59.29-173.05,7.39-20.22,8.34-36.2-1.52-56.95-68.53-144.18-135.15-289.27-202.34-434.08-19.54-42.11-42.39-51.31-89.06-47.43-54.06,4.49-108.62,3.24-162.96,4.08-14.92.23-30.17-2.98-44.7-.8-9.28,1.39-17.52,9.77-26.23,15.01,6.65,8.24,11.69,20.44,20.28,23.95,21.99,8.98,45.33,15.05,68.54,20.53,35.64,8.42,47.39,20.01,52.21,56.36,1.25,9.45,1.72,19.14,1.27,28.65-2.7,57.39-5.54,114.78-8.77,172.15-7.95,140.99-16.31,281.95-24.11,422.95-1.92,34.75-14.72,54.54-47.76,66.06-24.82,8.65-50.3,15.42-75.52,22.92-11.32,3.36-23.27,7.1-20.82,22.05,2.53,15.45,14.69,17.14,27.7,15.15,109.54-16.73,219.37-18.05,329.46-6.41,12.32,1.3,25.51,2.37,29.21-13.1,4.04-16.9-9.94-20.95-21.73-25.44-6.69-2.55-13.77-4.03-20.59-6.26-20.45-6.68-41.03-13.03-61.26-20.34-35.09-12.68-51.92-38.12-52.05-75.43-.57-172.43-1.45-344.86-1.81-517.29-.01-6.33,4.23-12.67,6.49-19,5.32,4.66,10.73,9.22,15.89,14.04ZM327.41,144.35c37.31,79.52,74.49,159.1,112.04,238.5,30.41,64.31,60.47,128.8,92.47,192.32,9.62,19.09,4.13,32.07-8.34,49.17-81.68-168.46-162.31-334.76-243.11-501.41,25.5-7.11,35.99-1.9,46.93,21.42Z"/>
  <path class="cls-2" d="M1156.1,919.35c-20.71-5.8-41.61-10.89-62.29-16.8-38.57-11.02-61.57-37.27-66.59-76.27-3.94-30.69-3.55-62-4.19-93.05-3.43-164.58-6.89-329.16-9.58-493.76-.54-32.79,13.66-61.37,43.18-75.44,23.59-11.24,51.26-13.75,76.91-20.87,10.49-2.91,20.44-7.74,30.63-11.7,5.32-7.59,14.67-15.08,14.03-22.14-.54-5.93-12.7-12.96-20.93-15.43-8.75-2.63-18.96-.82-28.5-.32-39.43,2.07-78.81,5.35-118.26,6.33-40.08.99-80.24-1.1-120.33-.17-33.74.79-48.11,13.86-56.11,46.31-1.43,5.8-3.21,11.52-4.99,17.22-9.88,31.69-19.8,63.37-29.71,95.05.7.25,1.39.49,2.09.74,13.23-26.37,26.46-52.75,39.69-79.12,4.46,6.56,5.05,12.13,5.09,17.7.19,32.93-.3,65.87.45,98.78,4.22,183.72,8.51,367.44,13.38,551.14.68,25.62-10.65,43.15-32.19,53.07-18.82,8.68-39.53,13.2-59.22,20.11-9.47,3.32-19.42,6.64-27.36,12.42-4.88,3.55-10.03,13.02-8.46,17.55,2,5.77,10.35,12.44,16.52,13.05,15.35,1.51,31.13.9,46.52-.81,116.61-12.93,233-12.54,349.27,3.91,19.76,2.8,37.42-5.73,40.02-18.69,2.39-11.89-8.63-23.07-29.06-28.79ZM1145.65,97.27c12.09,4.53,24.63,6.74,24.83,9.78.31,4.72-1,9.38-2.65,14.09-4.63,4.39-11.86,10.06-15.06,12.52-10.02,1.93-20.03,3.87-30.05,5.8,9.53-12.94,37.65-9.03,22.93-42.19ZM1160.54,961.38c-12.15-14.04-22.55-26.06-36.21-41.86,21.37.77,37.79,6.17,47.83,18.35,10.5,12.74-3.06,19.07-11.62,23.51Z"/>
  <path class="cls-1" d="M759.79,98.31c-35.88,68.92-75.66,135.83-101.37,209.68-22.32,64.12-42.7,128.39-33.26,197.91.65,4.81-3.39,12.06-7.5,15.37-12.95,10.41-14.99,22.94-12.84,38.47,1.16,8.37-.44,18.05-3.72,25.91-8.97,21.46-21.56,41.57-29.07,63.46-32.6,95-64.23,190.33-95.46,285.79-7.66,23.41-12.47,47.75-18.54,71.46,30.76,8.48,46.02,3.47,61.36-19,6.71-9.83,12.61-20.39,17.55-31.22,14.39-31.55,29.56-62.86,41.75-95.26,18.48-49.13,38.4-98.23,50.65-149.03,8.99-37.27,6.35-77.29,9.74-116.01.5-5.73,4.27-13.43,8.91-16.13,18.09-10.55,23.2-19.95,20.01-41.18-.63-4.22-.31-9.45,1.68-13.06,63.66-115.12,112.46-236.36,148.6-362.67,9.43-32.96,15.3-66.94,23.55-103.75-35.95,4.13-64.89,6.26-82.06,39.24ZM635.66,563.21c-7.88,0-14.27-6.39-14.27-14.27s6.39-14.27,14.27-14.27,14.27,6.39,14.27,14.27-6.39,14.27-14.27,14.27ZM769.65,297.6"/>
</svg>