<?xml version="1.0" encoding="utf-8"?>
<!-- Generator: Adobe Illustrator 28.1.0, SVG Export Plug-In . SVG Version: 6.00 Build 0)  -->
<svg version="1.1" id="Layer_2_00000073704229713011293940000003626390915603994300_"
	 xmlns="http://www.w3.org/2000/svg" xmlns:xlink="http://www.w3.org/1999/xlink" x="0px" y="0px" viewBox="0 0 1238.8 1041.3"
	 style="enable-background:new 0 0 1238.8 1041.3;" xml:space="preserve">
<style type="text/css">
	.st0{display:none;stroke:#FFFFFF;stroke-miterlimit:10;}
	.st1{fill:#ED1A2F;}
	.st2{fill:#FFFFFF;}
</style>
<rect x="-154.9" y="-117.9" class="st0" width="2461.2" height="1596.7"/>
<g>
	<g>
		<path class="st1" d="M46.6,984.7c-16.5,0-27.5-9-30.1-24.6c-2.2-13.3,3.8-21.1,9.1-25.3c5.8-4.5,13.2-6.7,19.1-8.5
			c7.1-2.1,14.3-4.2,21.3-6.2c17.8-5.1,36.1-10.4,53.7-16.6c27.9-9.7,39-25.1,40.7-56.7c4.5-81.4,9.3-164.1,13.9-244.1
			c3.4-58.6,6.9-119.2,10.2-178.8c2.8-50.1,5.5-103.2,8.8-172.1c0.4-8.7,0-17.7-1.2-26.8c-4.2-31.5-12-39.9-44.2-47.5
			c-22.9-5.4-47.3-11.7-70.1-21c-9-3.7-14.4-12.1-19.2-19.5c-1.8-2.8-3.5-5.5-5.3-7.6l-7.6-9.4l10.3-6.2c2.3-1.4,4.7-3.1,7.3-5
			c6.5-4.7,13.9-10.1,22.8-11.4c3.9-0.6,8.1-0.9,12.8-0.9c5.6,0,11.2,0.4,16.6,0.8c5.3,0.4,10.3,0.8,15.2,0.8c0.5,0,0.9,0,1.4,0
			c14.6-0.2,29.3-0.3,43.7-0.4c39-0.2,79.4-0.4,118.6-3.7c6.8-0.6,12.9-0.8,18.5-0.8c40.1,0,62.8,15.2,81,54.3
			c15.5,33.4,31,66.9,46.5,100.3c50.7,109.5,103.1,222.8,155.8,333.7c10.3,21.7,10.9,40.5,1.9,65.1c-14.9,40.7-28.9,82.5-42.4,122.9
			c-5.5,16.4-11.1,33.3-16.8,49.9c-1,2.9-2,5.7-3.5,9.6c-0.8,2.1-1.7,4.6-2.8,7.5l-8.7,23.7l-10.6-22.9c-5.1-11-10-21.6-14.9-31.9
			c-10.5-22.5-20.4-43.8-30.3-65.1c-45.7-98.8-91.3-197.6-137-296.4l-60.2-130.3c-0.4-0.9-0.7-1.7-0.9-2.3c0,0,0-0.1,0-0.1l-0.3-0.3
			c-1.1-1-2.2-2-3.3-3c-0.1,0.5-0.2,1-0.2,1.4c0.2,108.1,0.7,218,1.1,324.2c0.3,64.4,0.5,128.7,0.7,193.1
			c0.1,33.2,14.9,54.7,45.1,65.6c14.9,5.4,30.2,10.3,45.1,15.1c5.3,1.7,10.6,3.4,15.8,5.1c2.6,0.8,5.2,1.6,8,2.4
			c4.2,1.2,8.6,2.4,13,4.1c0.7,0.3,1.4,0.5,2.1,0.8c6.3,2.4,13.4,5,18.9,10c5.1,4.7,10.5,13.2,7.2,26.9c-2.4,10-9.4,21.8-29.5,21.8
			c-3.7,0-7.3-0.3-11-0.7c-47.5-5-95.1-7.6-141.3-7.6c-62.6,0-125,4.7-185.5,13.9C52.7,984.5,49.6,984.7,46.6,984.7z M551.1,602.3
			c3-7.8,2.1-14.1-2-22.4C522,526,495.8,470.6,470.5,417c-4.7-9.9-9.3-19.7-14-29.6c-27.9-58.9-56-118.9-83.2-176.9
			c-8.7-18.5-17.4-37.1-26.1-55.6l-2.8-6c-8-17-13.4-18.3-19.7-18.3c-0.8,0-1.5,0-2.4,0.1L551.1,602.3z"/>
		<path class="st2" d="M313.1,103.7c35.2,0,54.6,11.8,71.5,48.2C451.7,296.7,518.3,441.8,586.9,586c9.9,20.8,8.9,36.7,1.5,56.9
			c-20.9,57.3-39.7,115.3-59.3,173.1c-1.5,4.3-3.1,8.5-6.2,16.9c-16.1-34.7-30.7-65.8-45.1-97.1C412,593.6,346.3,451.3,280.6,309.1
			c-0.8-1.6-1.1-3.7-2.4-4.8l0,0c-5.2-4.8-10.6-9.4-15.9-14c-2.3,6.3-6.5,12.7-6.5,19c0.4,172.4,1.2,344.9,1.8,517.3
			c0.1,37.3,17,62.8,52.1,75.4c20.2,7.3,40.8,13.7,61.3,20.3c6.8,2.2,13.9,3.7,20.6,6.3c11.8,4.5,25.8,8.5,21.7,25.4
			c-2.7,11.3-10.5,13.8-19.3,13.8c-3.2,0-6.6-0.3-9.9-0.7c-47.5-5-94.9-7.6-142.4-7.6c-62.5,0-124.8,4.5-187.1,14
			c-2.7,0.4-5.4,0.7-8,0.7c-9.7,0-17.7-3.6-19.7-15.8c-2.4-15,9.5-18.7,20.8-22c25.2-7.5,50.7-14.3,75.5-22.9
			c33-11.5,45.8-31.3,47.8-66.1c7.8-141,16.2-282,24.1-423c3.2-57.4,6.1-114.8,8.8-172.2c0.5-9.5,0-19.2-1.3-28.6
			c-4.8-36.4-16.6-47.9-52.2-56.4c-23.2-5.5-46.6-11.6-68.5-20.5c-8.6-3.5-13.6-15.7-20.3-24c8.7-5.2,17-13.6,26.2-15
			c3.7-0.6,7.5-0.8,11.3-0.8c10.5,0,21.3,1.6,31.9,1.6c0.5,0,1,0,1.6,0c54.3-0.8,108.9,0.4,163-4.1
			C301.8,104,307.6,103.7,313.1,103.7 M550.2,624.3c12.5-17.1,18-30.1,8.3-49.2c-32-63.5-62.1-128-92.5-192.3
			c-37.5-79.4-74.7-159-112-238.5h0c-8-17-15.7-24.4-29.2-24.4c-5,0-10.8,1-17.7,3C387.9,289.6,468.5,455.9,550.2,624.3 M313.1,82.7
			L313.1,82.7c-5.9,0-12.2,0.3-19.3,0.9c-38.8,3.2-79,3.4-117.8,3.6c-14.3,0.1-29.2,0.2-43.8,0.4c-0.4,0-0.8,0-1.2,0
			c-4.5,0-9.3-0.4-14.4-0.7c-5.6-0.4-11.4-0.8-17.4-0.8c-5.2,0-9.9,0.3-14.4,1c-11.5,1.7-20.3,8.1-27.4,13.3
			c-2.4,1.7-4.6,3.3-6.5,4.5l-20.7,12.4L45.2,136c1.4,1.7,3,4.2,4.6,6.7c5.4,8.3,12,18.6,24,23.5c23.5,9.6,48.3,16,71.7,21.5
			c14.4,3.4,22.8,7,27.2,11.7c4.4,4.7,7.2,13,9,27c1.1,8.5,1.5,16.8,1.1,24.9c-3.2,68.9-5.9,121.9-8.8,172
			c-3.4,59.6-6.9,120.2-10.2,178.8c-4.6,80-9.4,162.8-13.9,244.2c-0.8,14-3.4,23.8-8.4,30.8c-5,7-13,12.3-25.3,16.6
			c-17.3,6-35.6,11.3-53.2,16.4c-7,2-14.2,4.1-21.4,6.2c-6.4,1.9-15.2,4.5-22.6,10.3c-10.7,8.4-15.3,21-13,35.3
			c2.3,14.3,9.8,22.2,15.6,26.3c6.8,4.7,15.1,7.1,24.8,7.1c3.5,0,7.2-0.3,11.2-0.9c60-9.2,121.8-13.8,183.9-13.8
			c45.8,0,93,2.5,140.1,7.5c3.8,0.4,7.9,0.8,12.1,0.8c9,0,16.4-1.8,22.7-5.6c6-3.6,13.7-10.7,17-24.3c3.5-14.5-0.2-27.7-10.3-37
			c-7-6.4-15.5-9.6-22.3-12.2c-0.7-0.3-1.4-0.5-2-0.8c-4.9-1.8-9.5-3.1-14-4.4c-2.7-0.7-5.2-1.5-7.6-2.2c-5.3-1.7-10.7-3.5-15.9-5.1
			c-14.8-4.8-30.1-9.7-44.7-15c-26.3-9.5-38.1-26.7-38.2-55.8c-0.2-64.4-0.5-129.9-0.7-193.2c-0.4-92.5-0.7-187.7-1-282l44.7,96.8
			c45.7,98.9,91.4,197.7,137.1,296.6c9.9,21.4,19.8,42.6,30.3,65.1c4.8,10.4,9.8,21,14.9,32l21.3,45.8l17.5-47.4
			c1.1-3,2-5.4,2.8-7.5c1.5-4,2.6-6.8,3.6-9.9c5.7-16.6,11.3-33.6,16.8-50c13.5-40.4,27.5-82.1,42.3-122.6c4.9-13.3,7.1-24.6,7-35.7
			c-0.1-12.3-3.1-24.6-9.3-37.5c-52.7-110.8-105.1-224.1-155.8-333.6c-15.2-32.9-31-66.9-46.5-100.3
			C383.7,100.2,357.5,82.7,313.1,82.7L313.1,82.7z"/>
	</g>
	<g>
		<path class="st1" d="M1179.2,977.9c-3,0-6-0.2-9-0.6c-60.6-8.6-123.2-12.9-185.9-12.9c-52.5,0-106.6,3-160.8,9.1
			c-10.5,1.2-20.1,1.7-29.4,1.7c-6.7,0-13.2-0.3-19.3-0.9c-10.2-1-22.1-10.4-25.4-20.1c-3.5-10.2,4.7-24,12.2-29.5
			c8.8-6.4,19.3-10.1,28.6-13.3l1.4-0.5c7.4-2.6,14.9-4.9,22.2-7c12.8-3.8,24.8-7.5,36.1-12.7c18.1-8.3,26.6-22.5,26.1-43.3
			c-5-187.9-9.3-375.3-13.4-551.2c-0.5-21.4-0.5-43.1-0.4-64.1c0-6.1,0-12.3,0-18.5l-29.1,58l-20.3-7.3l8.6-27.4
			c8.1-25.8,16.1-51.5,24.1-77.3c1.7-5.4,3.4-11,4.8-16.6c9.3-37.7,28.4-53.4,66.1-54.3c7.2-0.2,14.8-0.2,23.2-0.2
			c12.3,0,24.7,0.2,36.8,0.3c12,0.2,24.4,0.3,36.5,0.3c8.7,0,16.5-0.1,23.9-0.3c25.6-0.6,51.8-2.3,77.1-3.9
			c13.4-0.8,27.2-1.7,40.9-2.4c2-0.1,4-0.3,6.2-0.5c3.8-0.3,7.8-0.6,11.8-0.6c5.4,0,10,0.6,14.1,1.8c0.3,0.1,26.9,8.2,28.4,24.5
			c0.8,9.4-5.5,16.7-11,23.2c-1.8,2.1-3.5,4.1-4.8,6l-1.8,2.6l-3,1.2c-3,1.2-6,2.4-9.2,3.8c-7.1,3-14.5,6.1-22.4,8.3
			c-9.2,2.5-18.5,4.5-27.6,6.4c-17.1,3.6-33.3,7-47.6,13.8c-24.5,11.7-37.7,35-37.2,65.8c2.6,158.6,6,319.8,9.2,475.7l0.4,18
			c0.1,6,0.2,12,0.3,18c0.3,24.4,0.7,49.7,3.8,73.9c4.5,34.9,24.4,57.6,59.1,67.5c11,3.1,22.3,6.1,33.2,9c9.5,2.5,19.4,5.1,29.1,7.8
			l4.4,1.2l0.1,0.2c27.6,9.2,34.8,26.2,32.1,39.6C1218.8,966.5,1201.2,977.9,1179.2,977.9C1179.2,977.9,1179.2,977.9,1179.2,977.9z
			 M1189.5,948.1c1-0.6,1.8-1.3,2.3-1.8c-0.2-0.4-0.6-0.9-1.2-1.7c-3-3.7-7-6.6-11.9-8.9C1182.3,939.8,1185.9,943.9,1189.5,948.1z"
			/>
		<path class="st2" d="M1172.8,92.5c3.8,0,7.6,0.3,11.1,1.4c8.2,2.5,20.4,9.5,20.9,15.4c0.6,7.1-8.7,14.5-14,22.1
			c-10.2,4-20.1,8.8-30.6,11.7c-25.7,7.1-53.3,9.6-76.9,20.9c-29.5,14.1-43.7,42.6-43.2,75.4c2.7,164.6,6.2,329.2,9.6,493.8
			c0.6,31,0.2,62.4,4.2,93c5,39,28,65.2,66.6,76.3c20.7,5.9,41.6,11,62.3,16.8l0,0c20.4,5.7,31.5,16.9,29.1,28.8
			c-2.3,11.3-16,19.2-32.5,19.2c-2.4,0-5-0.2-7.5-0.5c-62.4-8.8-124.8-13-187.3-13c-53.9,0-107.9,3.1-161.9,9.1
			c-9.3,1-18.8,1.7-28.3,1.7c-6.1,0-12.2-0.3-18.3-0.9c-6.2-0.6-14.5-7.3-16.5-13c-1.6-4.5,3.6-14,8.5-17.5
			c7.9-5.8,17.9-9.1,27.4-12.4c19.7-6.9,40.4-11.4,59.2-20.1c21.5-9.9,32.9-27.5,32.2-53.1c-4.9-183.7-9.2-367.4-13.4-551.1
			c-0.8-32.9-0.3-65.9-0.5-98.8c0-5.6-0.6-11.1-5.1-17.7c-13.2,26.4-26.5,52.8-39.7,79.1c-0.7-0.2-1.4-0.5-2.1-0.7
			c9.9-31.7,19.8-63.4,29.7-95c1.8-5.7,3.6-11.4,5-17.2c8-32.5,22.4-45.5,56.1-46.3c7.6-0.2,15.3-0.2,22.9-0.2
			c24.4,0,48.9,0.7,73.3,0.7c8,0,16.1-0.1,24.1-0.3c39.5-1,78.8-4.3,118.3-6.3C1161.1,93.3,1167.1,92.5,1172.8,92.5 M1149.3,139.5
			c10-1.9,20-3.9,30.1-5.8c3.2-2.5,10.4-8.1,15.1-12.5c1.6-4.7,3-9.4,2.6-14.1c-0.2-3-12.7-5.2-24.8-9.8h0
			C1187,130.4,1158.8,126.5,1149.3,139.5 M1187.1,961.4c8.6-4.4,22.1-10.8,11.6-23.5c-10-12.2-26.5-17.6-47.8-18.3
			C1164.6,935.3,1175,947.3,1187.1,961.4 M1172.8,71.5c-4.5,0-8.8,0.4-12.6,0.7c-2.1,0.2-4.1,0.3-5.9,0.4c-13.7,0.7-27.6,1.6-41,2.4
			c-25.2,1.6-51.2,3.2-76.7,3.9c-7.3,0.2-15,0.3-23.6,0.3c-12.1,0-24.4-0.2-36.3-0.3c-12.1-0.2-24.6-0.3-36.9-0.3
			c-8.5,0-16.2,0.1-23.4,0.3c-22.1,0.5-38.2,5.7-50.8,16.2c-12,10.1-20,24.7-25.3,46.1c-1.3,5.3-3,10.7-4.6,16
			c-8,25.7-16.2,51.9-24.1,77.2l-5.6,17.9l-6,19.3l19,6.8l1.1,0.4l1,0.3l17.5,6.3l8.3-16.6l5-10c0,12.8,0.1,25.7,0.4,38.5
			c4,175.9,8.4,363.4,13.4,551.2c0.4,16.8-5.5,26.8-20,33.4c-10.7,4.9-22.4,8.4-34.8,12.2c-7.4,2.2-15,4.5-22.6,7.2l-1.4,0.5
			c-10,3.5-21.3,7.5-31.4,14.8c-9.8,7.1-21.6,25.2-15.9,41.4c4.7,13.5,20.1,25.7,34.3,27.1c6.5,0.6,13.3,1,20.3,1
			c9.7,0,19.7-0.6,30.6-1.8c53.8-6,107.5-9,159.6-9c62.2,0,124.2,4.3,184.4,12.8c3.5,0.5,7,0.7,10.4,0.7c27,0,48.9-14.8,53.1-36.1
			c2.6-12.7-1.7-25.7-11.7-35.7c-5.9-5.9-13.6-10.7-23-14.4l-0.3-0.6l-9-2.5c-9.8-2.7-19.7-5.3-29.2-7.9c-10.9-2.9-22.1-5.8-33-8.9
			c-15.3-4.4-27.3-11.5-35.8-21.3c-8.5-9.7-13.7-22.3-15.7-37.5c-3-23.6-3.4-47.5-3.7-72.7c-0.1-5.9-0.2-12-0.3-18.1l-0.4-18.6
			c-3.2-155.7-6.6-316.7-9.2-475.1c-0.3-15.3,3.5-42.9,31.2-56.1c13.2-6.3,28.8-9.6,45.2-13c9.2-1.9,18.8-3.9,28.3-6.6
			c8.5-2.4,16.2-5.6,23.6-8.7c3.1-1.3,6.1-2.5,9-3.7l5.9-2.3l3.7-5.2c1-1.4,2.5-3.2,4.2-5.1c6.3-7.2,14.8-17.2,13.6-31
			c-0.8-9.3-6.5-17.5-16.7-24.5c-5.7-3.9-12.7-7.2-19.1-9.2C1184.8,72.2,1179.2,71.5,1172.8,71.5L1172.8,71.5z"/>
	</g>
	<g>
		<path d="M508.6,1020.7c-7.6,0-16.4-1.4-26.8-4.3l-9.9-2.7l2.6-10c1.9-7.4,3.7-15,5.4-22.3c3.9-16.4,7.9-33.3,13.3-49.8
			c36.4-111.3,66.8-202.2,95.5-285.9c4.6-13.4,10.9-26.1,17.1-38.3c4.2-8.4,8.6-17.2,12.2-25.8c2.7-6.5,3.9-14.3,3-20.4
			c-2-14.5-1.9-33.1,16.7-48.1c1.7-1.4,3.5-4.7,3.6-6.1c-9.5-70.3,9.7-133.3,33.8-202.5c20.4-58.5,49.7-113.2,78.1-166.2
			c7-13.1,14.2-26.5,21.2-39.9l2.6-5c19.1-36.7,51.8-40.5,86.3-44.4l18.5-2.1l-3.2,14.4c-2.6,11.8-5.1,23.4-7.4,34.6
			c-5,24.2-9.8,47.1-16.3,69.8c-37.2,129.9-87.5,252.7-149.5,364.9c-0.5,0.8-0.9,3.4-0.5,6.4c3.7,24.9-3.1,38.9-25.1,51.8
			c-1.2,0.8-3.5,4.9-3.7,8c-1.1,12.9-1.6,26.4-2,39.4c-0.9,25.9-1.8,52.6-8,78.2c-10.6,43.9-26.9,86.9-42.7,128.4
			c-2.8,7.3-5.5,14.6-8.3,21.9c-9.8,26.2-21.7,51.9-33.2,76.7c-3,6.4-5.9,12.8-8.8,19.2c-5.3,11.6-11.5,22.6-18.4,32.8
			C541.5,1012.5,527.7,1020.7,508.6,1020.7C508.6,1020.7,508.6,1020.7,508.6,1020.7z M662.2,545.2c-2.1,0-3.8,1.7-3.8,3.8
			c0,2.1,1.7,3.8,3.8,3.8c2.1,0,3.8-1.7,3.8-3.8C666,546.9,664.3,545.2,662.2,545.2z"/>
		<path class="st2" d="M868.4,59.1c-8.2,36.8-14.1,70.8-23.6,103.8c-36.1,126.3-84.9,247.5-148.6,362.7c-2,3.6-2.3,8.8-1.7,13.1
			c3.2,21.2-1.9,30.6-20,41.2c-4.6,2.7-8.4,10.4-8.9,16.1c-3.4,38.7-0.8,78.7-9.7,116c-12.2,50.8-32.2,99.9-50.6,149
			c-12.2,32.4-27.4,63.7-41.8,95.3c-4.9,10.8-10.8,21.4-17.5,31.2c-10.7,15.7-21.4,22.9-37.4,22.9c-6.9,0-14.7-1.3-24-3.9
			c6.1-23.7,10.9-48,18.5-71.5c31.2-95.5,62.9-190.8,95.5-285.8c7.5-21.9,20.1-42,29.1-63.5c3.3-7.9,4.9-17.5,3.7-25.9
			c-2.2-15.5-0.1-28.1,12.8-38.5c4.1-3.3,8.2-10.6,7.5-15.4c-9.4-69.5,10.9-133.8,33.3-197.9c25.7-73.9,65.5-140.8,101.4-209.7l0,0
			C803.5,65.3,832.5,63.2,868.4,59.1 M662.2,563.2c7.9,0,14.3-6.4,14.3-14.3s-6.4-14.3-14.3-14.3s-14.3,6.4-14.3,14.3
			S654.4,563.2,662.2,563.2 M895.4,34.8L866,38.2l-3.8,0.4c-35.8,4.1-72.7,8.3-94.5,50l-5,9.7c-6.2,11.8-12.6,23.6-18.7,35.1
			c-28.6,53.3-58.2,108.4-78.8,167.7c-10.9,31.4-22.2,64.9-29.3,99.6c-7.7,37.5-9.4,71.8-5.4,104.7c-9.2,7.5-15.4,16.7-18.5,27.3
			c-2.6,8.8-3,18.3-1.4,29.9c0.6,4.3-0.3,10.2-2.3,14.9c-3.5,8.3-7.6,16.5-11.9,25.1c-6.3,12.6-12.8,25.5-17.6,39.6
			C550,726.1,519.6,817,483.2,928.4c-5.5,16.9-9.6,34-13.5,50.6c-1.7,7.3-3.5,14.9-5.4,22.2l-5.1,20l19.9,5.5
			c11.3,3.1,21,4.6,29.6,4.6c29.4,0,45.3-18.3,54.7-32c7.3-10.7,13.8-22.2,19.3-34.3c2.9-6.4,5.9-12.9,8.8-19.2
			c11.6-25,23.5-50.9,33.5-77.4c2.7-7.3,5.6-14.7,8.3-21.8c15.9-41.8,32.4-85.1,43.1-129.7c6.4-26.6,7.3-53.9,8.2-80.3
			c0.5-13.4,0.9-26,2-38.6c0.1-0.3,0.2-0.7,0.4-1.1c8.6-5.2,18.6-12.6,24.4-24.3c6.5-13.1,5.5-26.7,4-37.1c0-0.3-0.1-0.7-0.1-1
			c31.4-56.9,60-116.8,85-178.2c24.5-60.1,46.3-123.2,64.7-187.7c6.6-23.1,11.4-46.1,16.5-70.5c2.3-11.2,4.7-22.7,7.4-34.4
			L895.4,34.8L895.4,34.8z"/>
	</g>
</g>
</svg>
